# This file uses centimeters as units for non-parametric coordinates.

mtllib AR-500016.mtl
g default
v -52.811171 7.397141 -26.722831
v 48.652177 15.575401 -26.722831
v -49.703433 -31.158933 -26.722831
v 51.759916 -22.980673 -26.722831
vt 1.000000 1.000000
vt 0.000000 1.000000
vt 0.000000 0.000000
vt 1.000000 0.000000
vn 0.000000 0.000000 -1.000000
vn 0.000000 0.000000 -1.000000
vn 0.000000 0.000000 -1.000000
vn 0.000000 0.000000 -1.000000
vn 0.000000 0.000000 -1.000000
vn 0.000000 0.000000 -1.000000
s off
g nose
usemtl noseSG3
f 4/1/1 3/2/2 1/3/3
f 2/4/4 4/1/5 1/3/6
g default
v -120.458987 22.101586 40.504461
v 117.541013 22.101586 40.504461
v -120.458987 -137.834418 40.504461
v 117.541013 -137.834418 40.504461
vt 1.000000 1.000000
vt 0.000000 1.000000
vt 0.000000 0.000000
vt 1.000000 0.000000
vn 0.000000 0.000000 -1.000000
vn 0.000000 0.000000 -1.000000
vn 0.000000 0.000000 -1.000000
vn 0.000000 0.000000 -1.000000
vn 0.000000 0.000000 -1.000000
vn 0.000000 0.000000 -1.000000
s off
g heart
usemtl heartSG3
f 8/5/7 7/6/8 5/7/9
f 6/8/10 8/5/11 5/7/12
g default
v -89.355682 -115.133706 55.796350
v 87.281676 -107.550760 55.796350
v -85.488379 -205.218763 55.796350
v 91.148979 -197.635817 55.796350
vt 1.000000 1.000000
vt 0.000000 1.000000
vt 0.000000 0.000000
vt 1.000000 0.000000
vn 0.000000 0.000000 -1.000000
vn 0.000000 0.000000 -1.000000
vn 0.000000 0.000000 -1.000000
vn 0.000000 0.000000 -1.000000
vn 0.000000 0.000000 -1.000000
vn 0.000000 0.000000 -1.000000
s off
g ear
usemtl earSG3
f 12/9/13 11/10/14 9/11/15
f 10/12/16 12/9/17 9/11/18
